<?xml version="1.0" encoding="UTF-8"?>
<svg xmlns="http://www.w3.org/2000/svg" xmlns:xlink="http://www.w3.org/1999/xlink" width="158px" height="42px" viewBox="0 0 156 42" version="1.1">
<g id="surface1">
<path style=" stroke:none;fill-rule:nonzero;fill:rgb(62.745098%,45.098039%,1.960784%);fill-opacity:1;" d="M 57.621094 28.570312 C 54.699219 35.992188 47.484375 41.265625 39 41.265625 C 27.984375 41.265625 19.011719 32.28125 19.011719 21.246094 C 19.011719 10.109375 27.886719 1.125 39 1.125 C 46.410156 1.125 52.84375 5.128906 56.355469 11.183594 C 52.941406 11.183594 49.53125 11.183594 46.117188 11.183594 C 42.800781 11.183594 39.78125 11.574219 37.636719 14.308594 C 36.953125 15.089844 36.757812 16.261719 36.464844 17.335938 C 35.78125 19.484375 35.101562 21.636719 34.417969 23.882812 C 33.636719 26.226562 32.761719 29.058594 33.441406 31.5 C 34.320312 34.332031 37.148438 34.429688 39.585938 33.746094 C 41.925781 33.0625 44.070312 32.085938 46.214844 30.914062 C 48.066406 29.839844 49.824219 28.277344 51.96875 27.691406 C 53.039062 27.398438 54.113281 27.300781 55.183594 27.59375 C 55.964844 27.789062 56.84375 28.375 57.621094 28.570312 Z M 57.621094 28.570312 "/>
<path style=" stroke:none;fill-rule:nonzero;fill:rgb(100%,75.686275%,2.745098%);fill-opacity:1;" d="M 57.621094 28.570312 C 54.601562 36.1875 47.09375 41.65625 38.414062 41.65625 C 27.007812 41.65625 17.84375 32.378906 17.84375 21.050781 C 17.84375 9.621094 27.105469 0.441406 38.414062 0.441406 C 46.019531 0.441406 52.746094 4.640625 56.257812 10.792969 C 52.746094 10.792969 49.238281 10.792969 45.628906 10.792969 C 42.21875 10.792969 39.195312 11.183594 36.855469 14.015625 C 36.171875 14.894531 35.976562 16.066406 35.683594 17.042969 C 35.003906 19.289062 34.222656 21.539062 33.539062 23.785156 C 32.761719 26.226562 31.785156 29.15625 32.566406 31.695312 C 33.441406 34.625 36.367188 34.722656 38.902344 34.039062 C 41.242188 33.355469 43.582031 32.378906 45.726562 31.109375 C 47.675781 30.035156 49.433594 28.472656 51.675781 27.789062 C 52.746094 27.496094 53.917969 27.398438 54.988281 27.691406 C 55.867188 27.789062 56.84375 28.375 57.621094 28.570312 Z M 57.621094 28.570312 "/>
<path style=" stroke:none;fill-rule:nonzero;fill:rgb(62.745098%,45.098039%,1.960784%);fill-opacity:1;" d="M 40.851562 17.628906 L 43.386719 17.628906 L 43.386719 25.054688 L 40.851562 25.054688 Z M 40.851562 17.628906 "/>
<path style=" stroke:none;fill-rule:nonzero;fill:rgb(100%,75.686275%,2.745098%);fill-opacity:1;" d="M 40.460938 17.628906 L 42.996094 17.628906 L 42.996094 25.054688 L 40.460938 25.054688 Z M 40.460938 17.628906 "/>
<path style=" stroke:none;fill-rule:nonzero;fill:rgb(62.745098%,45.098039%,1.960784%);fill-opacity:1;" d="M 45.910156 20.082031 L 45.910156 22.621094 L 38.5 22.621094 L 38.5 20.082031 Z M 45.910156 20.082031 "/>
<path style=" stroke:none;fill-rule:nonzero;fill:rgb(100%,75.686275%,2.745098%);fill-opacity:1;" d="M 45.476562 20.128906 L 45.476562 22.667969 L 38.066406 22.667969 L 38.066406 20.128906 Z M 45.476562 20.128906 "/>
<path style=" stroke:none;fill-rule:nonzero;fill:rgb(100%,75.686275%,2.745098%);fill-opacity:1;" d="M 74.78125 25.542969 C 75.464844 26.128906 75.757812 26.910156 75.757812 27.984375 C 75.757812 29.058594 75.464844 29.9375 74.78125 30.621094 C 74.101562 31.207031 73.125 31.597656 71.953125 31.597656 L 70.296875 31.597656 L 70.296875 34.234375 L 67.859375 34.234375 L 67.859375 24.664062 L 72.050781 24.664062 C 73.125 24.664062 74.101562 24.957031 74.78125 25.542969 Z M 73.027344 29.253906 C 73.320312 28.960938 73.417969 28.667969 73.417969 28.179688 C 73.417969 27.691406 73.320312 27.398438 73.027344 27.105469 C 72.734375 26.8125 72.34375 26.714844 71.859375 26.714844 L 70.296875 26.714844 L 70.296875 29.644531 L 71.859375 29.644531 C 72.34375 29.644531 72.734375 29.449219 73.027344 29.253906 Z M 73.027344 29.253906 "/>
<path style=" stroke:none;fill-rule:nonzero;fill:rgb(100%,75.686275%,2.745098%);fill-opacity:1;" d="M 83.265625 34.234375 L 82.582031 32.574219 L 78.488281 32.574219 L 77.804688 34.234375 L 75.269531 34.234375 L 79.363281 24.664062 L 81.898438 24.664062 L 85.898438 34.234375 Z M 79.265625 30.621094 L 81.898438 30.621094 L 80.632812 27.203125 Z M 79.265625 30.621094 "/>
<path style=" stroke:none;fill-rule:nonzero;fill:rgb(100%,75.686275%,2.745098%);fill-opacity:1;" d="M 92.429688 34.234375 L 91.066406 31.597656 L 89.210938 31.597656 L 89.210938 34.234375 L 86.773438 34.234375 L 86.773438 24.664062 L 91.066406 24.664062 C 92.332031 24.664062 93.308594 24.957031 93.988281 25.542969 C 94.671875 26.128906 95.0625 26.910156 95.0625 27.984375 C 95.0625 28.667969 94.964844 29.351562 94.671875 29.839844 C 94.378906 30.328125 93.988281 30.71875 93.40625 31.011719 L 95.355469 34.136719 L 92.429688 34.136719 Z M 89.210938 29.644531 L 91.066406 29.644531 C 91.550781 29.644531 91.941406 29.546875 92.234375 29.253906 C 92.527344 28.960938 92.625 28.667969 92.625 28.179688 C 92.625 27.691406 92.527344 27.398438 92.234375 27.105469 C 91.941406 26.8125 91.550781 26.714844 91.066406 26.714844 L 89.210938 26.714844 Z M 89.210938 29.644531 "/>
<path style=" stroke:none;fill-rule:nonzero;fill:rgb(100%,75.686275%,2.745098%);fill-opacity:1;" d="M 103.546875 34.234375 L 102.863281 32.574219 L 98.765625 32.574219 L 98.085938 34.234375 L 95.550781 34.234375 L 99.644531 24.664062 L 102.179688 24.664062 L 106.175781 34.234375 Z M 99.546875 30.621094 L 102.179688 30.621094 L 100.914062 27.203125 Z M 99.546875 30.621094 "/>
<path style=" stroke:none;fill-rule:nonzero;fill:rgb(100%,75.686275%,2.745098%);fill-opacity:1;" d="M 113.78125 25.347656 C 114.5625 25.738281 115.148438 26.324219 115.539062 27.007812 C 115.925781 27.691406 116.21875 28.570312 116.21875 29.449219 C 116.21875 30.425781 116.023438 31.207031 115.539062 31.890625 C 115.148438 32.574219 114.464844 33.160156 113.683594 33.550781 C 112.90625 33.941406 112.027344 34.136719 110.953125 34.136719 L 106.957031 34.136719 L 106.957031 24.566406 L 111.050781 24.566406 C 112.125 24.664062 113.003906 24.859375 113.78125 25.347656 Z M 112.515625 31.890625 C 112.90625 31.695312 113.199219 31.304688 113.390625 30.914062 C 113.585938 30.523438 113.683594 30.035156 113.683594 29.449219 C 113.683594 28.863281 113.585938 28.472656 113.390625 27.984375 C 113.199219 27.59375 112.90625 27.203125 112.515625 27.007812 C 112.125 26.8125 111.636719 26.617188 111.148438 26.617188 L 109.589844 26.617188 L 109.589844 32.085938 L 111.246094 32.085938 C 111.734375 32.183594 112.125 32.085938 112.515625 31.890625 Z M 112.515625 31.890625 "/>
<path style=" stroke:none;fill-rule:nonzero;fill:rgb(100%,75.686275%,2.745098%);fill-opacity:1;" d="M 117.488281 24.664062 L 119.925781 24.664062 L 119.925781 34.234375 L 117.488281 34.234375 Z M 117.488281 24.664062 "/>
<path style=" stroke:none;fill-rule:nonzero;fill:rgb(100%,75.686275%,2.745098%);fill-opacity:1;" d="M 126.75 26.8125 C 126.164062 26.617188 125.675781 26.519531 125.289062 26.519531 C 124.996094 26.519531 124.703125 26.617188 124.605469 26.714844 C 124.410156 26.8125 124.3125 27.007812 124.3125 27.203125 C 124.3125 27.398438 124.410156 27.59375 124.507812 27.691406 C 124.703125 27.789062 124.898438 27.984375 125.09375 27.984375 C 125.289062 28.082031 125.675781 28.179688 126.066406 28.277344 C 126.75 28.472656 127.238281 28.667969 127.726562 28.863281 C 128.113281 29.058594 128.503906 29.351562 128.796875 29.742188 C 129.089844 30.132812 129.285156 30.621094 129.285156 31.304688 C 129.285156 31.890625 129.089844 32.476562 128.796875 32.964844 C 128.503906 33.453125 128.015625 33.746094 127.433594 33.941406 C 126.847656 34.136719 126.164062 34.234375 125.484375 34.234375 C 124.703125 34.234375 123.921875 34.136719 123.140625 33.84375 C 122.363281 33.550781 121.679688 33.160156 121.09375 32.671875 L 122.070312 30.71875 C 122.558594 31.109375 123.140625 31.5 123.726562 31.792969 C 124.410156 32.085938 124.996094 32.183594 125.484375 32.183594 C 125.871094 32.183594 126.164062 32.085938 126.359375 31.988281 C 126.554688 31.890625 126.652344 31.695312 126.652344 31.402344 C 126.652344 31.207031 126.554688 31.011719 126.457031 30.816406 C 126.261719 30.71875 126.066406 30.523438 125.871094 30.425781 C 125.675781 30.328125 125.289062 30.230469 124.898438 30.132812 C 124.214844 29.9375 123.726562 29.742188 123.238281 29.546875 C 122.753906 29.351562 122.460938 29.058594 122.167969 28.667969 C 121.875 28.277344 121.679688 27.789062 121.679688 27.203125 C 121.679688 26.617188 121.875 26.128906 122.167969 25.640625 C 122.460938 25.152344 122.949219 24.859375 123.53125 24.566406 C 124.117188 24.371094 124.800781 24.175781 125.578125 24.175781 C 126.261719 24.175781 126.945312 24.273438 127.628906 24.46875 C 128.308594 24.664062 128.894531 24.957031 129.382812 25.25 L 128.40625 27.203125 C 127.824219 27.300781 127.238281 27.007812 126.75 26.8125 Z M 126.75 26.8125 "/>
<path style=" stroke:none;fill-rule:nonzero;fill:rgb(100%,75.686275%,2.745098%);fill-opacity:1;" d="M 130.550781 24.664062 L 138.058594 24.664062 L 138.058594 26.617188 L 133.085938 26.617188 L 133.085938 28.472656 L 137.574219 28.472656 L 137.574219 30.425781 L 133.085938 30.425781 L 133.085938 32.183594 L 138.253906 32.183594 L 138.253906 34.136719 L 130.648438 34.136719 L 130.648438 24.664062 Z M 130.550781 24.664062 "/>
<path style=" stroke:none;fill-rule:nonzero;fill:rgb(100%,100%,100%);fill-opacity:1;" d="M 77.707031 14.210938 L 80.632812 14.210938 L 80.632812 19.386719 C 79.949219 19.875 79.074219 20.265625 78.097656 20.65625 C 77.121094 20.949219 76.148438 21.148438 75.171875 21.148438 C 73.808594 21.148438 72.636719 20.851562 71.566406 20.265625 C 70.492188 19.679688 69.710938 18.898438 69.03125 17.824219 C 68.445312 16.75 68.152344 15.675781 68.152344 14.308594 C 68.152344 13.039062 68.445312 11.867188 69.128906 10.890625 C 69.710938 9.816406 70.589844 9.035156 71.761719 8.449219 C 72.832031 7.960938 74.101562 7.667969 75.367188 7.667969 C 76.34375 7.667969 77.316406 7.863281 78.292969 8.15625 C 79.265625 8.546875 80.046875 9.035156 80.730469 9.621094 L 78.78125 11.964844 C 78.292969 11.476562 77.804688 11.183594 77.121094 10.890625 C 76.539062 10.597656 75.855469 10.5 75.269531 10.5 C 74.585938 10.5 73.90625 10.695312 73.417969 10.988281 C 72.832031 11.28125 72.441406 11.769531 72.050781 12.355469 C 71.761719 12.941406 71.566406 13.625 71.566406 14.308594 C 71.566406 15.089844 71.761719 15.675781 72.050781 16.261719 C 72.34375 16.847656 72.832031 17.335938 73.417969 17.628906 C 74.003906 17.921875 74.585938 18.117188 75.367188 18.117188 C 76.050781 18.117188 76.734375 17.921875 77.609375 17.433594 L 77.609375 14.210938 Z M 77.707031 14.210938 "/>
<path style=" stroke:none;fill-rule:nonzero;fill:rgb(100%,100%,100%);fill-opacity:1;" d="M 92.527344 20.949219 L 91.648438 18.605469 L 85.996094 18.605469 L 85.117188 20.949219 L 81.609375 20.949219 L 87.261719 7.863281 L 90.675781 7.863281 L 96.136719 20.949219 Z M 86.96875 15.96875 L 90.578125 15.96875 L 88.824219 11.28125 Z M 86.96875 15.96875 "/>
<path style=" stroke:none;fill-rule:nonzero;fill:rgb(100%,100%,100%);fill-opacity:1;" d="M 97.304688 7.863281 L 101.011719 7.863281 L 104.8125 15.480469 L 108.613281 7.863281 L 112.320312 7.863281 L 112.320312 20.949219 L 109.296875 20.949219 L 109.296875 12.648438 L 105.984375 19.679688 L 103.738281 19.679688 L 100.425781 12.648438 L 100.425781 20.949219 L 97.402344 20.949219 L 97.402344 7.863281 Z M 97.304688 7.863281 "/>
<path style=" stroke:none;fill-rule:nonzero;fill:rgb(100%,100%,100%);fill-opacity:1;" d="M 114.855469 7.863281 L 125.191406 7.863281 L 125.191406 10.597656 L 118.265625 10.597656 L 118.265625 13.039062 L 124.507812 13.039062 L 124.507812 15.773438 L 118.265625 15.773438 L 118.265625 18.214844 L 125.386719 18.214844 L 125.386719 20.949219 L 114.855469 20.949219 Z M 114.855469 7.863281 "/>
<path style=" stroke:none;fill-rule:nonzero;fill:rgb(100%,100%,100%);fill-opacity:1;" d="M 134.160156 10.792969 C 133.378906 10.5 132.699219 10.402344 132.210938 10.402344 C 131.820312 10.402344 131.429688 10.5 131.234375 10.597656 C 131.039062 10.792969 130.84375 10.988281 130.84375 11.28125 C 130.84375 11.574219 130.941406 11.769531 131.136719 11.964844 C 131.332031 12.160156 131.625 12.355469 131.917969 12.453125 C 132.210938 12.550781 132.699219 12.746094 133.28125 12.941406 C 134.160156 13.234375 134.941406 13.429688 135.523438 13.722656 C 136.109375 14.015625 136.597656 14.40625 137.085938 14.894531 C 137.476562 15.480469 137.765625 16.164062 137.765625 17.042969 C 137.765625 17.921875 137.574219 18.703125 137.085938 19.289062 C 136.597656 19.875 136.011719 20.363281 135.234375 20.65625 C 134.453125 20.949219 133.574219 21.148438 132.601562 21.148438 C 131.527344 21.148438 130.453125 20.949219 129.382812 20.558594 C 128.308594 20.167969 127.335938 19.679688 126.554688 18.996094 L 127.921875 16.359375 C 128.601562 16.945312 129.382812 17.433594 130.261719 17.824219 C 131.136719 18.214844 131.917969 18.410156 132.699219 18.410156 C 133.183594 18.410156 133.574219 18.3125 133.867188 18.117188 C 134.160156 17.921875 134.355469 17.628906 134.355469 17.335938 C 134.355469 17.042969 134.257812 16.75 134.0625 16.554688 C 133.867188 16.359375 133.574219 16.164062 133.28125 16.066406 C 132.988281 15.96875 132.503906 15.773438 131.917969 15.675781 C 131.039062 15.382812 130.261719 15.1875 129.675781 14.894531 C 129.089844 14.601562 128.601562 14.210938 128.210938 13.722656 C 127.824219 13.234375 127.628906 12.550781 127.628906 11.671875 C 127.628906 10.890625 127.824219 10.109375 128.308594 9.523438 C 128.699219 8.9375 129.382812 8.449219 130.164062 8.15625 C 130.941406 7.863281 131.820312 7.667969 132.890625 7.667969 C 133.867188 7.667969 134.746094 7.765625 135.71875 8.058594 C 136.597656 8.351562 137.476562 8.644531 138.15625 9.132812 L 136.890625 11.867188 C 135.71875 11.378906 134.941406 10.988281 134.160156 10.792969 Z M 134.160156 10.792969 "/>
</g>
</svg>
